<svg width="43" height="44" viewBox="0 0 43 44" fill="none" xmlns="http://www.w3.org/2000/svg">
<path d="M21.5 0.0454559C9.62125 0.0454559 0 10.1253 0 22.5571C0 32.5052 6.15975 40.9414 14.7006 43.9157C15.7756 44.1276 16.1698 43.4308 16.1698 42.8333C16.1698 42.2987 16.1519 40.8822 16.1429 39.0056C10.1623 40.3629 8.901 35.9855 8.901 35.9855C7.92275 33.3872 6.50912 32.6923 6.50912 32.6923C4.56158 31.2968 6.65963 31.3254 6.65963 31.3254C8.81858 31.482 9.95271 33.645 9.95271 33.645C11.8698 37.087 14.9855 36.0924 16.2146 35.5177C16.4081 34.0611 16.9617 33.0703 17.5763 32.5072C12.8015 31.944 7.783 30.0082 7.783 21.383C7.783 18.9261 8.61613 16.9177 9.99571 15.3428C9.75383 14.7739 9.02821 12.4849 10.1838 9.38459C10.1838 9.38459 11.9845 8.78133 16.0963 11.6926C17.8163 11.1925 19.6438 10.9443 21.4713 10.9328C23.2988 10.9443 25.1263 11.1925 26.8463 11.6926C30.9313 8.78133 32.732 9.38459 32.732 9.38459C33.8876 12.4849 33.162 14.7739 32.947 15.3428C34.3176 16.9177 35.1507 18.9261 35.1507 21.383C35.1507 30.0311 30.1251 31.9344 25.3413 32.4881C26.0938 33.1639 26.7926 34.5441 26.7926 36.6536C26.7926 39.6661 26.7657 42.0868 26.7657 42.818C26.7657 43.4079 27.142 44.1123 28.2438 43.8871C36.8456 40.9318 43 32.49 43 22.5571C43 10.1253 33.3734 0.0454559 21.5 0.0454559Z" fill="#FFD369"/>
</svg>
