<svg width="43" height="45" viewBox="0 0 43 45" fill="none" xmlns="http://www.w3.org/2000/svg">
<path d="M21.5 0.0454559C9.62769 0.0454559 0 10.1108 0 22.5227C0 34.9347 9.62769 45 21.5 45C33.3723 45 43 34.9347 43 22.5227C43 10.1108 33.3723 0.0454559 21.5 0.0454559ZM15.2523 34.0248H10.0161V17.5554H15.2523V34.0248ZM12.6344 15.3065H12.6003C10.8432 15.3065 9.70676 14.042 9.70676 12.4615C9.70676 10.8454 10.8779 9.61586 12.6692 9.61586C14.4604 9.61586 15.5627 10.8454 15.5968 12.4615C15.5968 14.042 14.4604 15.3065 12.6344 15.3065ZM34.1331 34.0248H28.8975V25.2141C28.8975 22.9998 28.1394 21.4897 26.2448 21.4897C24.7984 21.4897 23.9369 22.5083 23.5583 23.4916C23.4198 23.8435 23.386 24.3354 23.386 24.8275V34.0248H18.1501C18.1501 34.0248 18.2187 19.1005 18.1501 17.5554H23.386V19.8873C24.0819 18.7651 25.3269 17.1689 28.1049 17.1689C31.5499 17.1689 34.1331 19.5227 34.1331 24.5813V34.0248Z" fill="#FFD369"/>
</svg>
